<?xml version="1.0" encoding="utf-8"?>
<!-- Generator: Adobe Illustrator 20.1.0, SVG Export Plug-In . SVG Version: 6.00 Build 0)  -->
<svg version="1.1" xmlns="http://www.w3.org/2000/svg" xmlns:xlink="http://www.w3.org/1999/xlink" x="0px" y="0px"
	 viewBox="0 0 612 792" style="enable-background:new 0 0 612 792;" xml:space="preserve">
<style type="text/css">
	.st0{display:none;}
	.st1{display:inline;}
	.st2{fill:#3E8A4F;}
	.st3{fill:#FAFAFA;}
	.st4{fill:#2B3990;}
	.st5{fill:#00AEEF;}
	.st6{opacity:0.7;fill:#FAFAFA;}
</style>
<g id="Layer_1" class="st0">
	<g id="BZyf1Q_1_" class="st1">
		<g>
			<path class="st2" d="M-463.1,602.5c-104.5,0-209,0-313.4,0c-2.7,0-5.3,0.1-8-0.2c-18.8-1.8-27.5-16.5-19.2-33.5
				c4.4-9.1,9.8-17.8,14.9-26.6c26.4-45.7,52.8-91.4,79.2-137.1c32.7-56.7,65.4-113.3,98.1-170c32.9-57.1,65.8-114.3,98.9-171.3
				c10.1-17.4,19.4-35.3,30.7-52.1C-471.7-3.7-455-4-444.3,11.3c9.8,13.9,17.4,29.1,25.9,43.8c31.9,55,63.6,110.2,95.3,165.3
				c32.5,56.4,65,112.8,97.6,169.2c31.3,54.2,62.6,108.4,93.9,162.6c3.2,5.5,6.5,10.9,9.2,16.6c8.1,17.7-0.9,32.5-20.3,33.6
				c-3.7,0.2-7.3,0.1-11,0.1C-256.8,602.5-360,602.5-463.1,602.5z M-372.9,532.8c51.2,0.6,94.2-41.3,95-92.8
				c0.8-52.1-41-95.2-92.9-95.9c-51.9-0.7-95.2,40.8-95.8,91.8C-467.3,489.7-426.2,532.1-372.9,532.8z M-519.7,207.9
				c4.9-0.2,6.6,2,7.9,4.6c4.7,9.9,9.4,19.9,14,29.8c4.1,8.8,8,17.6,12.1,26.3c2.8,5.8,6.8,6.1,10.5,0.9c0.6-0.8,1-1.7,1.6-2.6
				c13.9-22.5,27.8-45.1,41.7-67.6c5.9-9.5,8.7-10,17.1-2.9c4.5,3.8,8.9,7.5,13.3,11.3c18.1,15.5,36.1,31.1,54.2,46.5
				c1,0.8,1.9,2.8,3.7,1.1c1.4-1.3,0-2.5-0.5-3.4c-3.8-7.2-7.7-14.3-11.7-21.3c-28-49-56.1-98-84.1-146.9
				c-5.8-10.1-11.5-20.3-17.6-30.2c-3.3-5.4-7.3-5.3-10.8,0c-0.7,1.1-1.4,2.3-2,3.4c-10,17.5-20.1,35-30.1,52.4
				c-21.7,37.9-43.4,75.7-65,113.6c-1.1,1.9-3.4,4.1-1.3,6.2c1.9,1.8,4-0.1,5.9-1c11.7-6,23.4-12,35.1-18
				C-523.4,209.2-521,208-519.7,207.9z M-550.3,344c-56.6,0.5-98.6,42.9-98.2,95.1c0.4,51.9,42.9,94.1,94.7,93.7
				c28-0.2,51.4-11,70.2-31.7c2.6-2.9,3.3-5.3-0.7-7.6c-11-6.3-21.9-12.6-32.9-19c-2.5-1.4-4.6-1.4-6.9,0.4
				c-1.5,1.2-3.3,2.3-4.9,3.4c-18.9,12.4-44.4,9-60.1-8c-15.4-16.7-16.5-43.1-2.5-60.6c17.3-21.7,46.8-24.9,68.2-7
				c3.6,3,6.2,3.2,10.1,0.8c9.8-6,19.9-11.5,29.8-17.2c5.5-3.1,5.7-3.5,1.5-8.4C-500.9,355.7-525,344.5-550.3,344z"/>
			<path class="st2" d="M-97.7,575.2"/>
			<path class="st3" d="M-372.9,532.8c-53.3-0.7-94.4-43.1-93.7-96.9c0.6-50.9,43.9-92.4,95.8-91.8c51.9,0.7,93.7,43.8,92.9,95.9
				C-278.8,491.4-321.7,533.4-372.9,532.8z M-372.2,391.1c-25.9-0.1-47.2,20.8-47.5,46.6c-0.3,26.4,20.8,47.8,47.2,47.9
				c26.1,0.1,47.4-21,47.5-47.1C-325,412.4-346,391.3-372.2,391.1z"/>
			<path class="st3" d="M-519.7,207.9c-1.2,0.1-3.6,1.2-6,2.4c-11.7,6-23.4,12-35.1,18c-1.9,1-4,2.9-5.9,1c-2.2-2.1,0.2-4.4,1.3-6.2
				c21.6-37.9,43.3-75.7,65-113.6c10-17.5,20.1-35,30.1-52.4c0.7-1.2,1.3-2.3,2-3.4c3.5-5.2,7.6-5.4,10.8,0
				c6,10,11.8,20.1,17.6,30.2c28.1,49,56.1,97.9,84.1,146.9c4,7,7.9,14.2,11.7,21.3c0.5,0.9,2,2.1,0.5,3.4c-1.8,1.6-2.7-0.3-3.7-1.1
				c-18.1-15.5-36.1-31-54.2-46.5c-4.4-3.8-8.9-7.6-13.3-11.3c-8.4-7.1-11.2-6.7-17.1,2.9c-13.9,22.5-27.8,45-41.7,67.6
				c-0.5,0.9-1,1.8-1.6,2.6c-3.7,5.1-7.8,4.9-10.5-0.9c-4.2-8.7-8.1-17.6-12.1-26.3c-4.6-10-9.3-19.9-14-29.8
				C-513.1,209.9-514.8,207.7-519.7,207.9z"/>
			<path class="st3" d="M-550.3,344c25.3,0.5,49.4,11.7,68.4,33.8c4.2,4.9,4,5.2-1.5,8.4c-10,5.7-20,11.3-29.8,17.2
				c-3.9,2.4-6.5,2.2-10.1-0.8c-21.4-17.9-50.9-14.7-68.2,7c-13.9,17.5-12.8,43.9,2.5,60.6c15.7,17,41.2,20.4,60.1,8
				c1.7-1.1,3.4-2.2,4.9-3.4c2.3-1.8,4.4-1.9,6.9-0.4c10.9,6.4,21.9,12.7,32.9,19c4,2.3,3.3,4.7,0.7,7.6
				c-18.8,20.7-42.2,31.5-70.2,31.7c-51.8,0.4-94.3-41.8-94.7-93.7C-648.9,386.9-606.8,344.5-550.3,344z"/>
			<path class="st2" d="M-372.2,391.1c26.2,0.2,47.3,21.3,47.2,47.4c-0.1,26.1-21.4,47.2-47.5,47.1c-26.4-0.1-47.4-21.5-47.2-47.9
				C-419.5,411.9-398.1,391-372.2,391.1z"/>
		</g>
	</g>
</g>
<g id="Layer_2">
	<g id="BZyf1Q_2_">
		<g>
			<path class="st4" d="M297.9,530.5c-78.4,0-156.7,0-235.1,0c-2,0-4,0.1-6-0.1C42.7,529,36.2,518,42.4,505.2
				c3.3-6.8,7.3-13.3,11.1-19.9c19.8-34.3,39.6-68.6,59.4-102.9c24.5-42.5,49.1-85,73.6-127.5c24.7-42.8,49.3-85.7,74.1-128.5
				c7.6-13.1,14.5-26.5,23-39c7.8-11.6,20.4-11.7,28.4-0.3c7.3,10.4,13.1,21.9,19.4,32.9c23.9,41.3,47.7,82.6,71.5,124
				c24.4,42.3,48.8,84.6,73.2,126.9c23.5,40.7,47,81.3,70.4,122c2.4,4.1,4.9,8.2,6.9,12.4c6.1,13.3-0.6,24.3-15.2,25.2
				c-2.7,0.2-5.5,0.1-8.2,0.1C452.6,530.5,375.2,530.5,297.9,530.5z M255.4,234.6c3.7-0.2,5,1.5,5.9,3.5c3.5,7.4,7,14.9,10.5,22.4
				c3.1,6.6,6,13.2,9.1,19.7c2.1,4.3,5.1,4.5,7.9,0.7c0.4-0.6,0.8-1.3,1.2-1.9c10.4-16.9,20.8-33.8,31.3-50.7
				c4.4-7.2,6.5-7.5,12.8-2.2c3.3,2.8,6.7,5.7,10,8.5c13.5,11.6,27.1,23.3,40.7,34.9c0.7,0.6,1.4,2.1,2.8,0.9c1.1-1,0-1.9-0.4-2.6
				c-2.9-5.4-5.8-10.7-8.8-16c-21-36.7-42-73.5-63.1-110.2c-4.3-7.6-8.7-15.2-13.2-22.7c-2.5-4.1-5.5-4-8.1,0
				c-0.6,0.8-1,1.7-1.5,2.6c-7.5,13.1-15,26.2-22.6,39.3c-16.3,28.4-32.5,56.8-48.8,85.2c-0.8,1.4-2.6,3.1-0.9,4.7
				c1.4,1.4,3-0.1,4.4-0.8c8.8-4.5,17.6-9,26.3-13.5C252.7,235.5,254.5,234.7,255.4,234.6z"/>
			<path class="st2" d="M572,510"/>
			<path class="st5" d="M255.4,234.6c-0.9,0.1-2.7,0.9-4.5,1.8c-8.8,4.5-17.6,9-26.3,13.5c-1.4,0.7-3,2.2-4.4,0.8
				c-1.6-1.6,0.1-3.3,0.9-4.7c16.2-28.4,32.5-56.8,48.8-85.2c7.5-13.1,15-26.2,22.6-39.3c0.5-0.9,1-1.8,1.5-2.6c2.7-3.9,5.7-4,8.1,0
				c4.5,7.5,8.8,15.1,13.2,22.7c21,36.7,42.1,73.5,63.1,110.2c3,5.3,5.9,10.6,8.8,16c0.4,0.7,1.5,1.6,0.4,2.6
				c-1.3,1.2-2-0.2-2.8-0.9c-13.6-11.6-27.1-23.3-40.7-34.9c-3.3-2.8-6.6-5.7-10-8.5c-6.3-5.3-8.4-5-12.8,2.2
				c-10.4,16.9-20.9,33.8-31.3,50.7c-0.4,0.6-0.7,1.3-1.2,1.9c-2.8,3.9-5.8,3.7-7.9-0.7c-3.1-6.5-6-13.2-9.1-19.7
				c-3.5-7.5-7-14.9-10.5-22.4C260.4,236.1,259.1,234.4,255.4,234.6z"/>
		</g>
	</g>
</g>
<g id="Layer_3">
	<rect x="-665.6" y="1288" style="fill:none;" width="784.5" height="137.9"/>
</g>
<g id="Layer_4">
	<g>
		<g>
			<path class="st5" d="M126,424.3l9-39l0,0c-0.4,0-0.7-0.3-0.7-0.7l-0.1-4.1c0-0.2,0.1-0.3,0.3-0.3c0.9,0,3.8-0.1,8.3-0.1
				c2.7,0,6-0.1,9.8-0.1c3.8,0,8.1-0.1,12.8-0.1c4.7,0,9.7-0.1,15.1-0.1c5.4,0,11,0,16.9,0c2.9,0,5.9,0,8.9,0c3,0,6.1,0,9.1,0.1
				c6.1,0.1,12.4,0.1,18.6,0.2c6.2,0.1,12.5,0.2,18.6,0.4c6.1,0.1,12.2,0.3,18,0.5c1.5,0.1,2.9,0.1,4.3,0.2c0.7,0,1.4,0.1,2.1,0.1
				c0.4,0,0.7,0,1.1,0c0.4,0,0.7,0,1.1,0.1c3,0.2,5.9,0.9,8.5,2.3c1.3,0.7,2.5,1.5,3.6,2.5c0.5,0.5,1,1,1.5,1.7l0.1,0.1l0.1,0.2
				l0.1,0.2l0.2,0.4c0.2,0.3,0.3,0.6,0.5,0.8c1.2,2.2,2.4,4.3,3.6,6.3c9.2,16.3,15.4,27.1,15.4,27.1l-2.1,1.2
				c0,0-6.3-10.8-15.7-26.9c-1.2-2-2.4-4.1-3.7-6.3c-0.2-0.3-0.3-0.5-0.5-0.8l-0.2-0.4l-0.1-0.2l-0.1-0.1c-0.3-0.4-0.7-0.8-1.1-1.2
				c-0.8-0.8-1.8-1.4-2.9-2c-2.2-1.1-4.7-1.7-7.4-1.9c-0.3,0-0.7,0-1-0.1c-0.4,0-0.7,0-1.1,0c-0.7,0-1.4,0-2.1-0.1
				c-1.4,0-2.9-0.1-4.3-0.1c-5.8-0.1-11.9-0.2-18-0.3c-6.1-0.1-12.4-0.1-18.6-0.1c-6.2,0-12.5,0-18.6,0c-3.1,0-6.1,0-9.1,0.1
				c-3,0-6,0.1-8.9,0.1c-5.8,0-11.5,0.2-16.8,0.2c-5.3,0.1-10.4,0.2-15.1,0.3c-4.7,0.1-8.9,0.2-12.7,0.3c-2.2,0-4.3,0.1-6.1,0.2
				c-2.2,0.1-4.2,1.6-4.7,3.8c0,0.1,0,0.1,0,0.1l-7.3,31.9c-0.1,0.5-0.1,0.9,0,1.3c0.1,0.3,0.2,0.5,0.3,0.8c0.6,1,1.6,1.5,2.7,1.5
				c7.7,0.1,18.4,0.1,31,0.2c26.8,0.2,62.4,0.4,98.1,0.6c8.9,0.1,17.8,0.1,26.6,0.2c4.4,0,8.7,0.1,13,0.1c2.2,0,4.3,0.1,6.4,0.1
				c1.1,0,2.1,0,3.2,0c1.1,0,2.1,0.1,3.2,0.1c2.1,0.1,4.2,0.1,6.2,0.2c2.1,0.1,4.1,0.2,6.1,0.3c1,0,2,0.1,3,0.1c1,0.1,2,0.1,3,0.2
				c2,0.1,3.9,0.2,5.8,0.3c7.7,0.5,14.9,1.2,21.6,1.9c6.7,0.7,12.8,1.6,18.2,2.5c2.7,0.5,5.2,0.9,7.6,1.4c0.1,0,0.3,0.1,0.4,0.1
				c0.2,0,0.3,0.1,0.5,0.1c0.4,0.1,0.7,0.2,1,0.4c0.7,0.3,1.2,0.7,1.7,1.2c1,0.9,1.5,2,2,3c0.8,2,1.1,3.8,1.3,5.4
				c0.2,1.6,0.2,2.9,0.3,4c0,0.6,0,1.5-0.1,2.2c0,0.6-0.6,1.1-1.2,1l0,0c-0.8-0.1-1.5-0.8-1.5-1.6c0-0.6,0-1.1,0-1.6
				c0-1-0.1-2.3-0.2-3.7c-0.2-1.4-0.5-3.1-1.2-4.7c-0.3-0.8-0.8-1.5-1.4-2.1c-0.3-0.3-0.6-0.5-1-0.7c-0.1-0.1-0.3-0.1-0.4-0.2
				c-0.1,0-0.3-0.1-0.4-0.1c-0.2,0-0.3-0.1-0.5-0.1c-2.3-0.5-4.8-0.9-7.4-1.3c-5.3-0.9-11.4-1.6-18-2.3c-6.6-0.7-13.8-1.3-21.5-1.7
				c-1.9-0.1-3.8-0.2-5.8-0.3c-1,0-2-0.1-3-0.1c-1,0-2-0.1-3-0.1c-2-0.1-4-0.1-6.1-0.2c-2,0-4.1-0.1-6.2-0.1c-1,0-2.1,0-3.1-0.1
				c-1.1,0-2.1,0-3.2,0c-2.1,0-4.2,0-6.4,0c-4.3,0-8.7,0.1-13,0.1c-8.8,0.1-17.7,0.1-26.6,0.2c-35.7,0.2-71.3,0.5-98.1,0.6
				c-22.5,0.2-38.7,0.3-43.3,0.3c-0.7,0-1.3-0.6-1.3-1.3v-2.7C124.1,425.1,125,424.3,126,424.3L126,424.3z"/>
			<path class="st5" d="M192.4,423.1C192.4,423.1,192.3,423.1,192.4,423.1l-6.4-0.1c-0.2,0-0.3-0.1-0.4-0.2
				c-0.1-0.1-0.1-0.3-0.1-0.4l4.4-33.9c0.2-1.3,1.3-2.3,2.6-2.4l2.9-0.1c0.1,0,0.3,0.1,0.4,0.2c0.1,0.1,0.2,0.3,0.2,0.4l-0.7,33.7
				c0,0.8-0.3,1.5-0.9,2C193.8,422.8,193.1,423.1,192.4,423.1z"/>
			<path class="st5" d="M324.2,468.4c0.2-0.6,0.5-1.5,0.9-2.6c0.4-1.1,0.9-2.5,1.4-4.1c0.6-1.6,1.2-3.3,1.9-5.3
				c0.2-0.5,0.4-1,0.5-1.5c0.2-0.5,0.4-1,0.6-1.6c0.5-1.1,1.2-2.2,2.1-3.1c0.9-1,1.9-1.9,3-2.6c1.2-0.7,2.5-1.3,3.8-1.6
				c0.3-0.1,0.7-0.1,1.1-0.2c0.4-0.1,0.8-0.1,1.1-0.1c0.3,0,0.7,0,1-0.1c0.3,0,0.7,0,1,0c1.3,0,2.6,0,4,0c2.7,0,5.4,0,8.1,0
				c2.7,0,5.5,0,8.1,0c1.3,0,2.7,0,4,0c0.3,0,0.7,0,1,0c0.4,0,0.7,0,1.1,0.1c0.4,0,0.7,0.1,1.1,0.1c0.4,0.1,0.7,0.1,1.1,0.2
				c2.8,0.7,5.2,2.3,6.9,4.2c0.2,0.3,0.4,0.5,0.6,0.7c0.2,0.3,0.4,0.5,0.5,0.8c0.2,0.3,0.3,0.5,0.5,0.8c0.1,0.3,0.3,0.6,0.4,0.9
				c0.1,0.3,0.2,0.5,0.3,0.8l0.1,0.2l0,0.1l0,0l0,0.1l0.1,0.4c0.2,0.5,0.4,1,0.5,1.5c0.7,1.9,1.3,3.7,1.9,5.3c0.6,1.6,1,2.9,1.4,4.1
				c0.4,1.1,0.7,2,0.9,2.6c0.2,0.6,0.3,0.9,0.3,0.9c0.1,0.2,0,0.4-0.2,0.5c-0.2,0.1-0.5,0-0.6-0.2c0,0-0.1-0.3-0.4-0.9
				c-0.3-0.6-0.7-1.4-1.2-2.5c-0.5-1.1-1.1-2.4-1.8-3.9c-0.7-1.5-1.5-3.2-2.3-5.1c-0.2-0.5-0.4-0.9-0.6-1.4l-0.2-0.4l0-0.1l0,0l0,0
				c0,0,0,0.1,0,0l-0.1-0.2c-0.1-0.2-0.2-0.5-0.4-0.7c-0.1-0.2-0.2-0.4-0.4-0.6c-0.1-0.2-0.3-0.4-0.4-0.6c-0.2-0.2-0.3-0.4-0.5-0.6
				c-0.2-0.2-0.4-0.4-0.5-0.6c-1.5-1.5-3.4-2.7-5.7-3.2c-0.3-0.1-0.6-0.1-0.8-0.2c-0.3,0-0.6-0.1-0.9-0.1c-0.3,0-0.6,0-0.9,0
				c-0.3,0-0.7,0-1,0c-1.3,0-2.6,0-4,0c-2.7,0-5.4,0-8.1,0c-2.7,0-5.5,0-8.1,0c-1.3,0-2.7,0-4,0c-0.3,0-0.7,0-1,0
				c-0.3,0-0.6,0-0.9,0c-0.3,0-0.5,0.1-0.8,0.1c-0.3,0.1-0.6,0.1-0.8,0.2c-2.2,0.5-4.2,1.6-5.6,3.2c-0.7,0.8-1.3,1.6-1.8,2.5
				c-0.4,0.8-0.9,1.9-1.3,2.8c-0.8,1.9-1.6,3.6-2.3,5.1c-0.7,1.5-1.3,2.8-1.8,3.9c-0.5,1.1-0.9,1.9-1.2,2.5
				c-0.3,0.6-0.4,0.9-0.4,0.9c-0.1,0.2-0.3,0.3-0.5,0.2c-0.2-0.1-0.4-0.3-0.3-0.6C323.9,469.4,324,469,324.2,468.4z"/>
			<path class="st5" d="M137.5,468.4c0.2-0.6,0.5-1.5,0.9-2.6c0.4-1.1,0.9-2.5,1.4-4.1c0.6-1.6,1.2-3.3,1.9-5.3
				c0.2-0.5,0.4-1,0.5-1.5c0.2-0.5,0.4-1,0.6-1.6c0.5-1.1,1.2-2.2,2.1-3.1c0.9-1,1.9-1.9,3-2.6c1.2-0.7,2.5-1.3,3.8-1.6
				c0.3-0.1,0.7-0.1,1.1-0.2c0.4-0.1,0.8-0.1,1.1-0.1c0.3,0,0.7,0,1-0.1c0.3,0,0.7,0,1,0c1.3,0,2.6,0,4,0c2.7,0,5.4,0,8.1,0
				c2.7,0,5.5,0,8.1,0c1.3,0,2.7,0,4,0c0.3,0,0.7,0,1,0c0.4,0,0.7,0,1.1,0.1c0.4,0,0.7,0.1,1.1,0.1c0.4,0.1,0.7,0.1,1.1,0.2
				c2.8,0.7,5.2,2.3,6.9,4.2c0.2,0.3,0.4,0.5,0.6,0.7c0.2,0.3,0.4,0.5,0.5,0.8c0.2,0.3,0.3,0.5,0.5,0.8c0.1,0.3,0.3,0.6,0.4,0.9
				c0.1,0.3,0.2,0.5,0.3,0.8l0.1,0.2l0,0.1l0,0l0,0.1l0.1,0.4c0.2,0.5,0.4,1,0.5,1.5c0.7,1.9,1.3,3.7,1.9,5.3c0.6,1.6,1,2.9,1.4,4.1
				c0.4,1.1,0.7,2,0.9,2.6c0.2,0.6,0.3,0.9,0.3,0.9c0.1,0.2,0,0.4-0.2,0.5c-0.2,0.1-0.5,0-0.6-0.2c0,0-0.1-0.3-0.4-0.9
				c-0.3-0.6-0.7-1.4-1.2-2.5c-0.5-1.1-1.1-2.4-1.8-3.9c-0.7-1.5-1.5-3.2-2.3-5.1c-0.2-0.5-0.4-0.9-0.6-1.4l-0.2-0.4l0-0.1l0,0l0,0
				c0,0,0,0.1,0,0l-0.1-0.2c-0.1-0.2-0.2-0.5-0.4-0.7c-0.1-0.2-0.2-0.4-0.4-0.6c-0.1-0.2-0.3-0.4-0.4-0.6c-0.2-0.2-0.3-0.4-0.5-0.6
				c-0.2-0.2-0.4-0.4-0.5-0.6c-1.5-1.5-3.4-2.7-5.7-3.2c-0.3-0.1-0.6-0.1-0.8-0.2c-0.3,0-0.6-0.1-0.9-0.1c-0.3,0-0.6,0-0.9,0
				c-0.3,0-0.7,0-1,0c-1.3,0-2.6,0-4,0c-2.7,0-5.4,0-8.1,0c-2.7,0-5.5,0-8.1,0c-1.3,0-2.7,0-4,0c-0.3,0-0.7,0-1,0
				c-0.3,0-0.6,0-0.9,0c-0.3,0-0.5,0.1-0.8,0.1c-0.3,0.1-0.6,0.1-0.8,0.2c-2.2,0.5-4.2,1.6-5.6,3.2c-0.7,0.8-1.3,1.6-1.8,2.5
				c-0.4,0.8-0.9,1.9-1.3,2.8c-0.8,1.9-1.6,3.6-2.3,5.1c-0.7,1.5-1.3,2.8-1.8,3.9c-0.5,1.1-0.9,1.9-1.2,2.5
				c-0.3,0.6-0.4,0.9-0.4,0.9c-0.1,0.2-0.3,0.3-0.5,0.2c-0.2-0.1-0.4-0.3-0.3-0.6C137.2,469.4,137.3,469,137.5,468.4z"/>
			<path class="st5" d="M244.2,423.3c-0.7,0-1.4-0.3-1.9-0.8c-0.5-0.5-0.8-1.2-0.8-1.9l0.3-34.6c0-0.1,0.1-0.3,0.2-0.4
				c0.1-0.1,0.2-0.2,0.4-0.2l3.6,0.1c1.2,0,2.1,0.9,2.1,2.1l3,35.2c0,0.2,0,0.3-0.1,0.4c-0.1,0.1-0.3,0.2-0.4,0.2H244.2z"/>
			<path class="st5" d="M304.9,421.6c-0.2,0.7-0.8,1.1-1.1,1.3l-0.1,0.9c0,0.2-0.2,0.4-0.4,0.4h-5c-0.1,0-0.2-0.1-0.3-0.2
				c-0.1-0.1-0.1-0.2-0.1-0.3l0.2-0.9c-0.5,0-1-0.1-1.5-0.2c-1.8-0.3-3.1-1.8-3.1-3.4c0-0.3,0-0.5,0-0.8c0.1-1.4,1.2-2.5,2.6-3
				c1.5-0.5,3.4-0.6,4.4-0.6c0.9,0,1.7,0.2,2.4,0.6c2.2,1.4,2.1,4.3,2,5C305,420.9,305,421.3,304.9,421.6z"/>
			<path class="st5" d="M129.5,440.4l259.8,0.7c0.3,0,0.5,0.2,0.5,0.5c0,0.3-0.2,0.6-0.5,0.6l-259.8,0.7h0c-0.7,0-1.2-0.6-1.2-1.2
				C128.3,440.9,128.8,440.4,129.5,440.4z"/>
			<path class="st5" d="M192.8,439C192.8,439,192.7,439,192.8,439c-0.5,0-0.9-0.4-0.9-0.9c0-0.5,0.4-0.9,0.9-0.9l11.8,0.2
				c0.4,0,0.6,0.3,0.7,0.7c0,0.4-0.3,0.7-0.7,0.7L192.8,439z"/>
			<path class="st5" d="M250.1,439C250.1,439,250.1,439,250.1,439c-0.5,0-0.9-0.4-0.9-0.9c0-0.5,0.4-0.9,0.9-0.9l11.8,0.2
				c0.4,0,0.6,0.3,0.7,0.7c0,0.4-0.3,0.7-0.7,0.7L250.1,439z"/>
			<path class="st5" d="M391.2,443.3c0-0.4,0-0.8,0-1.2c0-0.8,0-1.5,0.1-2.2c0-0.6,0.1-1.2,0.1-1.5c0-0.4,0-0.6,0-0.6
				c0-0.1,0.1-0.3,0.3-0.3c0.2,0,0.3,0.1,0.3,0.3c0,0,0,0.2,0,0.6c0,0.4,0,0.9,0.1,1.5c0,0.6,0,1.4,0.1,2.2c0,0.4,0,0.8,0,1.2
				c0,0.4,0,0.8,0,1.3c0,0.4,0,0.9,0,1.2c0,0.4,0.1,0.8,0.2,1.1c0.1,0.4,0.2,0.7,0.3,1c0.1,0.3,0.2,0.6,0.3,0.9
				c0.2,0.5,0.5,1,0.7,1.2c0.2,0.2,0.4,0.3,0.4,0.3l0,0c0.1,0.1,0.1,0.2,0.1,0.3c0,0.1-0.2,0.2-0.3,0.1c0,0-0.1,0-0.2-0.1
				c-0.1,0-0.3-0.1-0.4-0.2c-0.3-0.2-0.7-0.7-1.1-1.3c-0.3-0.6-0.6-1.3-0.8-2.1c-0.1-0.4-0.2-0.8-0.2-1.3c0-0.5,0-0.9,0-1.3
				C391.2,444.2,391.2,443.7,391.2,443.3z"/>
		</g>
	</g>
	<path class="st6" d="M365.2,376.3c-5,0-9.9,0-14.9,0c-0.6,0-0.9-0.2-1.1-0.7c-3.3-6.9-5-14.2-4.5-21.8c0.5-7.6,3-14.5,7.8-20.5
		c0.4-0.5,0.8-0.7,1.4-0.7c7.5,0,15,0,22.6,0c0.6,0,1,0.2,1.3,0.6c4.1,5.1,6.6,10.9,7.6,17.4c1.2,8.8-0.5,17.1-4.2,25.1
		c-0.2,0.5-0.5,0.7-1,0.7C375.2,376.3,370.2,376.3,365.2,376.3z M372.1,357.6c0.2-7.7-0.4-15.3-2.3-22.8c-3.1,0-6.1,0-9.1,0
		c-1.5,4.1-3,19.5-2.2,22.8C363,357.6,367.5,357.6,372.1,357.6z M357,357.6c0.2-3.9,0.2-7.7,0.5-11.5c0.4-3.8,1.1-7.5,1.6-11.4
		c-1.2,0-2.6,0-3.9,0c-0.7,0-1,0.2-1.4,0.7c-4.2,5.4-6.3,11.5-6.7,18.3c-0.1,1.3,0,2.5,0,3.8C350.5,357.6,353.8,357.6,357,357.6z
		 M371.3,334.8c0.6,3.8,1.3,7.6,1.6,11.3c0.4,3.8,0.4,7.6,0.6,11.5c3.2,0,6.5,0,9.8,0c0.1-2.7,0-5.4-0.5-8c-0.9-5.3-3-10-6.3-14.2
		c-0.2-0.2-0.5-0.5-0.8-0.5C374.2,334.8,372.7,334.8,371.3,334.8z"/>
	<path class="st6" d="M368.7,311.1c-0.6,0.3-1.2,0.7-1.8,1c-0.4,0.3-0.7,0.3-1.1-0.1c-1.3-1.1-1.3-1-2.8-0.2c-0.3,0.2-0.6,0.4-1,0.6
		c-0.6-1-1.2-2-1.8-3.1c4.9-2.8,9.8-5.6,14.7-8.5c0.6,1,1.2,2,1.8,3.1c-0.7,0.4-1.3,0.8-1.9,1.1c-0.5,0.2-0.7,0.5-0.5,1
		c0.5,1.3,0,2.1-1.3,2.5c-0.8,0.3-1.1,0.9-1,1.8c0.1,3.4,0,6.8-0.9,10.2c-0.7,2.5-1.8,4.7-3.5,6.7c1.4,0.6,2.8,1.2,4.1,1.8
		c0.5,0.2,1.1,0.5,1.7,0.7c0.9,0.3,1.1,0.8,0.8,1.7c-5.9,0-11.9,0-17.8,0c-0.3-1.2-0.3-1.2,0.8-1.7c1.2-0.5,2.3-1,3.5-1.5
		c4.7-2,7.2-5.7,7.9-10.7c0.3-2.1,0.3-4.3,0.5-6.4C368.9,311.1,368.8,311.1,368.7,311.1z"/>
	<path class="st6" d="M395.7,286.4c0.2,0.4,0.4,0.7,0.7,1.2c-20.6,11.9-41.1,23.7-61.6,35.6c-0.2-0.4-0.4-0.7-0.7-1.2
		C354.6,310.1,375.1,298.3,395.7,286.4z"/>
	<path class="st6" d="M372.6,296.9c0.3,0.5,0.5,0.9,0.8,1.4c-4.9,2.8-9.8,5.6-14.7,8.5c-0.3-0.5-0.5-0.9-0.8-1.4
		C362.8,302.5,367.7,299.7,372.6,296.9z"/>
</g>
</svg>
